<?xml version="1.0" encoding="UTF-8"?>
<!DOCTYPE svg PUBLIC "-//W3C//DTD SVG 1.1//EN" "http://www.w3.org/Graphics/SVG/1.1/DTD/svg11.dtd">
<svg xmlns="http://www.w3.org/2000/svg" version="1.1" width="1500px" height="100px" style="shape-rendering:geometricPrecision; text-rendering:geometricPrecision; image-rendering:optimizeQuality; fill-rule:evenodd; clip-rule:evenodd" xmlns:xlink="http://www.w3.org/1999/xlink">
<g><path style="opacity:0.634" fill="#000000" d="M 747.5,25.5 C 747.174,21.1161 747.508,16.7828 748.5,12.5C 751.716,13.8057 754.716,15.4723 757.5,17.5C 755.417,19.6044 753.083,19.9377 750.5,18.5C 750.062,21.2949 749.062,23.6283 747.5,25.5 Z"/></g>
<g><path style="opacity:0.79" fill="#000000" d="M 747.5,25.5 C 747.613,28.0488 746.946,30.3821 745.5,32.5C 735.852,35.8264 732.186,32.493 734.5,22.5C 735.5,22.5 736.5,22.5 737.5,22.5C 738.167,26.5 738.833,26.5 739.5,22.5C 740.5,22.5 741.5,22.5 742.5,22.5C 742.833,26.5 743.167,26.5 743.5,22.5C 744.5,22.5 745.5,22.5 746.5,22.5C 746.263,23.791 746.596,24.791 747.5,25.5 Z"/></g>
<g><path style="opacity:0.782" fill="#000000" d="M 751.5,22.5 C 752.5,22.5 753.5,22.5 754.5,22.5C 754.833,26.5 755.167,26.5 755.5,22.5C 756.833,22.5 758.167,22.5 759.5,22.5C 759.833,27.8333 760.167,27.8333 760.5,22.5C 761.5,22.5 762.5,22.5 763.5,22.5C 765.346,32.4911 761.512,35.8245 752,32.5C 751.502,29.1832 751.335,25.8499 751.5,22.5 Z"/></g>
<g><path style="opacity:0.852" fill="#000000" d="M 737.5,35.5 C 738.5,35.5 739.5,35.5 740.5,35.5C 740.833,42.1667 741.167,42.1667 741.5,35.5C 742.833,35.5 744.167,35.5 745.5,35.5C 745.172,40.8746 745.505,46.2079 746.5,51.5C 747.452,49.9547 747.785,48.288 747.5,46.5C 748.833,46.5 750.167,46.5 751.5,46.5C 751.215,48.288 751.548,49.9547 752.5,51.5C 753.495,46.2079 753.828,40.8746 753.5,35.5C 754.833,35.5 756.167,35.5 757.5,35.5C 757.833,42.1667 758.167,42.1667 758.5,35.5C 759.5,35.5 760.5,35.5 761.5,35.5C 761.5,40.1667 761.5,44.8333 761.5,49.5C 759.833,49.5 758.167,49.5 756.5,49.5C 756.5,52.1667 756.5,54.8333 756.5,57.5C 751.833,57.5 747.167,57.5 742.5,57.5C 742.5,54.8333 742.5,52.1667 742.5,49.5C 740.833,49.5 739.167,49.5 737.5,49.5C 737.5,44.8333 737.5,40.1667 737.5,35.5 Z"/></g>
<g><path style="opacity:0.783" fill="#000000" d="M 715.5,37.5 C 716.833,37.5 718.167,37.5 719.5,37.5C 719.833,41.5 720.167,41.5 720.5,37.5C 721.833,37.5 723.167,37.5 724.5,37.5C 724.833,41.5 725.167,41.5 725.5,37.5C 726.873,37.3433 728.207,37.51 729.5,38C 728.726,40.405 728.226,42.905 728,45.5C 726.302,46.733 724.302,47.3996 722,47.5C 720.167,47.1667 718.333,46.8333 716.5,46.5C 715.593,43.5788 715.26,40.5788 715.5,37.5 Z"/></g>
<g><path style="opacity:0.812" fill="#000000" d="M 769.5,37.5 C 770.5,37.5 771.5,37.5 772.5,37.5C 773.167,41.5 773.833,41.5 774.5,37.5C 776.592,37.5614 778.092,38.5614 779,40.5C 779.483,39.552 779.649,38.552 779.5,37.5C 780.5,37.5 781.5,37.5 782.5,37.5C 782.74,40.5788 782.407,43.5788 781.5,46.5C 777.833,47.8333 774.167,47.8333 770.5,46.5C 769.593,43.5788 769.26,40.5788 769.5,37.5 Z"/></g>
<g><path style="opacity:0.87" fill="#000000" d="M 730.5,46.5 C 732.5,46.5 734.5,46.5 736.5,46.5C 736.667,57.1719 736.5,67.8385 736,78.5C 734.475,78.8881 732.808,78.8881 731,78.5C 729.488,79.2567 728.154,80.2567 727,81.5C 724.415,81.5968 721.749,81.2635 719,80.5C 718.05,81.0223 717.216,81.689 716.5,82.5C 715.167,78.8333 715.167,75.1667 716.5,71.5C 717.192,72.0253 717.692,72.6919 718,73.5C 718.5,65.5069 718.666,57.5069 718.5,49.5C 719.833,49.5 721.167,49.5 722.5,49.5C 722.833,54.8333 723.167,54.8333 723.5,49.5C 724.833,49.5 726.167,49.5 727.5,49.5C 727.5,51.1667 727.5,52.8333 727.5,54.5C 728.5,54.5 729.5,54.5 730.5,54.5C 730.5,51.8333 730.5,49.1667 730.5,46.5 Z"/></g>
<g><path style="opacity:0.911" fill="#000000" d="M 782.5,81.5 C 779.807,84.4338 777.641,84.1005 776,80.5C 771.562,83.5132 767.729,82.8465 764.5,78.5C 763.501,67.8541 763.168,57.1874 763.5,46.5C 765.167,46.5 766.833,46.5 768.5,46.5C 768.5,49.1667 768.5,51.8333 768.5,54.5C 769.5,54.5 770.5,54.5 771.5,54.5C 771.5,52.8333 771.5,51.1667 771.5,49.5C 772.833,49.5 774.167,49.5 775.5,49.5C 775.833,53.5 776.167,53.5 776.5,49.5C 779.243,49.0772 780.576,50.2439 780.5,53C 779.621,59.8267 779.788,66.66 781,73.5C 781.535,71.7295 782.369,71.3961 783.5,72.5C 782.593,75.4212 782.26,78.4212 782.5,81.5 Z"/></g>
<g><path style="opacity:0.908" fill="#000000" d="M 782.5,81.5 C 783.771,83.1086 784.771,84.9419 785.5,87C 787.246,87.4709 788.913,88.1376 790.5,89C 763.5,89.6667 736.5,89.6667 709.5,89C 711.695,88.6759 713.695,87.8425 715.5,86.5C 722.648,87.4916 729.981,87.825 737.5,87.5C 737.168,75.1487 737.501,62.8153 738.5,50.5C 740.188,53.304 741.355,56.304 742,59.5C 747.149,59.4261 752.315,59.4261 757.5,59.5C 758.23,57.6587 758.897,55.8254 759.5,54C 758.179,52.4555 758.512,51.2888 760.5,50.5C 761.499,62.8153 761.832,75.1487 761.5,87.5C 768.833,87.5 776.167,87.5 783.5,87.5C 783.167,85.5 782.833,83.5 782.5,81.5 Z M 749.5,77.5 C 752.303,80.2036 753.137,83.5369 752,87.5C 750.192,87.1119 748.525,87.1119 747,87.5C 746.333,84.8333 746.333,82.1667 747,79.5C 747.995,78.9341 748.828,78.2674 749.5,77.5 Z"/></g>
<g><path style="opacity:1" fill="#000000" d="M -0.5,58.5 C 222.167,58.5 444.833,58.5 667.5,58.5C 667.5,59.5 667.5,60.5 667.5,61.5C 444.833,61.5 222.167,61.5 -0.5,61.5C -0.5,60.5 -0.5,59.5 -0.5,58.5 Z"/></g>
<g><path style="opacity:1" fill="#000000" d="M 829.5,58.5 C 1052.17,58.5 1274.83,58.5 1497.5,58.5C 1497.5,59.5 1497.5,60.5 1497.5,61.5C 1274.83,61.5 1052.17,61.5 829.5,61.5C 829.5,60.5 829.5,59.5 829.5,58.5 Z"/></g>
<g><path style="opacity:0.133" fill="#000000" d="M 715.5,86.5 C 715.369,85.7611 715.536,85.0944 716,84.5C 716.692,85.4368 716.525,86.1034 715.5,86.5 Z"/></g>
</svg>
