<?xml version="1.0" encoding="UTF-8"?>
<!DOCTYPE svg PUBLIC "-//W3C//DTD SVG 1.1//EN" "http://www.w3.org/Graphics/SVG/1.1/DTD/svg11.dtd">
<svg xmlns="http://www.w3.org/2000/svg" version="1.1" width="2422px" height="2310px" style="shape-rendering:geometricPrecision; text-rendering:geometricPrecision; image-rendering:optimizeQuality; fill-rule:evenodd; clip-rule:evenodd" xmlns:xlink="http://www.w3.org/1999/xlink">
<g><path style="opacity:0.985" fill="#fefffe" d="M 1204.5,-0.5 C 1209.83,-0.5 1215.17,-0.5 1220.5,-0.5C 1220.17,6.19979 1220.5,12.8665 1221.5,19.5C 1251.31,33.2107 1282.31,37.044 1314.5,31C 1335.17,25 1355.83,19 1376.5,13C 1415.99,4.44178 1454.99,6.27511 1493.5,18.5C 1493.83,81.1702 1493.5,143.837 1492.5,206.5C 1455.81,186.849 1417.48,182.682 1377.5,194C 1358.26,201.415 1339.26,209.415 1320.5,218C 1285.58,230.655 1252.41,227.155 1221,207.5C 1220.5,267.166 1220.33,326.832 1220.5,386.5C 1215.17,386.5 1209.83,386.5 1204.5,386.5C 1204.5,257.5 1204.5,128.5 1204.5,-0.5 Z"/></g>
<g><path style="opacity:0.992" fill="#fefffe" d="M 771.5,319.5 C 793.5,319.5 815.5,319.5 837.5,319.5C 837.5,352.167 837.5,384.833 837.5,417.5C 859.167,417.5 880.833,417.5 902.5,417.5C 902.5,384.833 902.5,352.167 902.5,319.5C 928.5,319.5 954.5,319.5 980.5,319.5C 980.5,352.167 980.5,384.833 980.5,417.5C 1001.83,417.5 1023.17,417.5 1044.5,417.5C 1044.5,384.833 1044.5,352.167 1044.5,319.5C 1068.17,319.5 1091.83,319.5 1115.5,319.5C 1115.5,386.167 1115.5,452.833 1115.5,519.5C 1002.16,519.833 888.831,519.5 775.5,518.5C 774.52,517.019 773.353,515.685 772,514.5C 771.5,449.501 771.333,384.501 771.5,319.5 Z"/></g>
<g><path style="opacity:0.992" fill="#fefffe" d="M 1276.5,321.5 C 1298.5,321.5 1320.5,321.5 1342.5,321.5C 1342.5,354.167 1342.5,386.833 1342.5,419.5C 1364.17,419.5 1385.83,419.5 1407.5,419.5C 1407.5,386.833 1407.5,354.167 1407.5,321.5C 1433.5,321.5 1459.5,321.5 1485.5,321.5C 1485.5,354.167 1485.5,386.833 1485.5,419.5C 1506.5,419.5 1527.5,419.5 1548.5,419.5C 1548.5,386.833 1548.5,354.167 1548.5,321.5C 1572.17,321.5 1595.83,321.5 1619.5,321.5C 1619.5,388.167 1619.5,454.833 1619.5,521.5C 1506.5,521.667 1393.5,521.5 1280.5,521C 1279.21,519.59 1278.05,518.09 1277,516.5C 1276.5,451.501 1276.33,386.501 1276.5,321.5 Z"/></g>
<g><path style="opacity:0.986" fill="#fefffe" d="M 784.5,525.5 C 890.5,525.5 996.5,525.5 1102.5,525.5C 1102.5,534.5 1102.5,543.5 1102.5,552.5C 996.5,552.5 890.5,552.5 784.5,552.5C 784.5,543.5 784.5,534.5 784.5,525.5 Z"/></g>
<g><path style="opacity:0.99" fill="#fefffe" d="M 1289.5,527.5 C 1395.17,527.5 1500.83,527.5 1606.5,527.5C 1606.5,536.5 1606.5,545.5 1606.5,554.5C 1500.83,554.5 1395.17,554.5 1289.5,554.5C 1289.5,545.5 1289.5,536.5 1289.5,527.5 Z"/></g>
<g><path style="opacity:0.988" fill="#fefffe" d="M 796.5,558.5 C 894.5,558.5 992.5,558.5 1090.5,558.5C 1090.5,567.5 1090.5,576.5 1090.5,585.5C 992.5,585.5 894.5,585.5 796.5,585.5C 796.5,576.5 796.5,567.5 796.5,558.5 Z"/></g>
<g><path style="opacity:0.988" fill="#fefffe" d="M 1301.5,560.5 C 1399.5,560.5 1497.5,560.5 1595.5,560.5C 1595.5,569.5 1595.5,578.5 1595.5,587.5C 1497.5,587.5 1399.5,587.5 1301.5,587.5C 1301.5,578.5 1301.5,569.5 1301.5,560.5 Z"/></g>
<g><path style="opacity:0.953" fill="#fefffe" d="M 815.5,590.5 C 900.833,590.5 986.167,590.5 1071.5,590.5C 1071.5,599.833 1071.5,609.167 1071.5,618.5C 986.167,618.5 900.833,618.5 815.5,618.5C 815.5,609.167 815.5,599.833 815.5,590.5 Z"/></g>
<g><path style="opacity:0.953" fill="#fefffe" d="M 1319.5,592.5 C 1404.83,592.5 1490.17,592.5 1575.5,592.5C 1575.5,601.833 1575.5,611.167 1575.5,620.5C 1490.17,620.5 1404.83,620.5 1319.5,620.5C 1319.5,611.167 1319.5,601.833 1319.5,592.5 Z"/></g>
<g><path style="opacity:0.994" fill="#fefffe" d="M 840.5,689.5 C 865.833,689.5 891.167,689.5 916.5,689.5C 916.5,745.5 916.5,801.5 916.5,857.5C 935.167,857.5 953.833,857.5 972.5,857.5C 972.5,801.5 972.5,745.5 972.5,689.5C 1004.5,689.5 1036.5,689.5 1068.5,689.5C 1068.5,854.833 1068.5,1020.17 1068.5,1185.5C 1102.17,1185.5 1135.83,1185.5 1169.5,1185.5C 1169.5,1132.5 1169.5,1079.5 1169.5,1026.5C 1195.17,1026.5 1220.83,1026.5 1246.5,1026.5C 1246.5,1079.83 1246.5,1133.17 1246.5,1186.5C 1280.5,1186.5 1314.5,1186.5 1348.5,1186.5C 1348.5,1020.83 1348.5,855.167 1348.5,689.5C 1379.83,689.5 1411.17,689.5 1442.5,689.5C 1442.5,742.5 1442.5,795.5 1442.5,848.5C 1460.83,848.5 1479.17,848.5 1497.5,848.5C 1497.5,795.5 1497.5,742.5 1497.5,689.5C 1522.83,689.5 1548.17,689.5 1573.5,689.5C 1573.5,830.5 1573.5,971.5 1573.5,1112.5C 1517.5,1112.5 1461.5,1112.5 1405.5,1112.5C 1405.5,1186.83 1405.5,1261.17 1405.5,1335.5C 1273.5,1335.5 1141.5,1335.5 1009.5,1335.5C 1009.5,1261.17 1009.5,1186.83 1009.5,1112.5C 953.164,1112.48 896.831,1112.14 840.5,1111.5C 840.5,970.833 840.5,830.167 840.5,689.5 Z"/></g>
<g><path style="opacity:0.996" fill="#fefffe" d="M 208.5,764.5 C 233.833,764.5 259.167,764.5 284.5,764.5C 284.5,798.167 284.5,831.833 284.5,865.5C 307.833,865.5 331.167,865.5 354.5,865.5C 354.5,831.833 354.5,798.167 354.5,764.5C 380.5,764.5 406.5,764.5 432.5,764.5C 432.5,798.167 432.5,831.833 432.5,865.5C 454.833,865.5 477.167,865.5 499.5,865.5C 499.5,831.833 499.5,798.167 499.5,764.5C 525.833,764.5 552.167,764.5 578.5,764.5C 578.833,833.17 578.5,901.837 577.5,970.5C 570.949,973.609 564.282,976.442 557.5,979C 442.5,979.667 327.5,979.667 212.5,979C 211.234,978.691 210.067,978.191 209,977.5C 208.5,906.501 208.333,835.501 208.5,764.5 Z"/></g>
<g><path style="opacity:0.995" fill="#fefffe" d="M 1835.5,764.5 C 1860.83,764.5 1886.17,764.5 1911.5,764.5C 1911.5,798.167 1911.5,831.833 1911.5,865.5C 1934.83,865.5 1958.17,865.5 1981.5,865.5C 1981.5,831.833 1981.5,798.167 1981.5,764.5C 2007.83,764.5 2034.17,764.5 2060.5,764.5C 2060.5,798.167 2060.5,831.833 2060.5,865.5C 2082.5,865.5 2104.5,865.5 2126.5,865.5C 2126.5,831.833 2126.5,798.167 2126.5,764.5C 2152.83,764.5 2179.17,764.5 2205.5,764.5C 2205.67,833.167 2205.5,901.834 2205,970.5C 2198.24,973.462 2191.41,976.296 2184.5,979C 2069.5,979.667 1954.5,979.667 1839.5,979C 1838.23,978.691 1837.07,978.191 1836,977.5C 1835.5,906.501 1835.33,835.501 1835.5,764.5 Z"/></g>
<g><path style="opacity:0.969" fill="#fefffe" d="M 228.5,986.5 C 338.833,986.5 449.167,986.5 559.5,986.5C 559.5,994.833 559.5,1003.17 559.5,1011.5C 449.167,1011.5 338.833,1011.5 228.5,1011.5C 228.5,1003.17 228.5,994.833 228.5,986.5 Z"/></g>
<g><path style="opacity:0.969" fill="#fefffe" d="M 1855.5,986.5 C 1965.83,986.5 2076.17,986.5 2186.5,986.5C 2186.5,994.833 2186.5,1003.17 2186.5,1011.5C 2076.17,1011.5 1965.83,1011.5 1855.5,1011.5C 1855.5,1003.17 1855.5,994.833 1855.5,986.5 Z"/></g>
<g><path style="opacity:0.955" fill="#fefffe" d="M 238.5,1017.5 C 341.833,1017.5 445.167,1017.5 548.5,1017.5C 548.5,1025.17 548.5,1032.83 548.5,1040.5C 445.167,1040.5 341.833,1040.5 238.5,1040.5C 238.5,1032.83 238.5,1025.17 238.5,1017.5 Z"/></g>
<g><path style="opacity:0.952" fill="#fefffe" d="M 1865.5,1017.5 C 1969.17,1017.5 2072.83,1017.5 2176.5,1017.5C 2176.5,1025.17 2176.5,1032.83 2176.5,1040.5C 2072.83,1040.5 1969.17,1040.5 1865.5,1040.5C 1865.5,1032.83 1865.5,1025.17 1865.5,1017.5 Z"/></g>
<g><path style="opacity:0.995" fill="#fefffe" d="M 654.5,1027.5 C 701.5,1027.5 748.5,1027.5 795.5,1027.5C 795.833,1341.5 795.5,1655.5 794.5,1969.5C 788.528,1965.37 782.195,1961.87 775.5,1959C 761.368,1954.82 749.535,1958.32 740,1969.5C 732.914,1980.49 724.747,1990.66 715.5,2000C 702.545,2009.28 688.545,2011.28 673.5,2006C 662.055,1999.69 649.888,1995.53 637,1993.5C 627.673,1993.95 619.173,1996.79 611.5,2002C 584.153,2024.42 555.653,2045.26 526,2064.5C 514.653,2049.91 499.819,2043.74 481.5,2046C 455.178,2052.36 432.844,2065.36 414.5,2085C 404.878,2088.74 396.545,2086.74 389.5,2079C 351.612,2057.36 310.945,2047.69 267.5,2050C 245.091,2054.74 227.924,2066.91 216,2086.5C 187.425,2154.65 158.591,2222.65 129.5,2290.5C 127.77,2289.97 126.436,2288.97 125.5,2287.5C 153.276,2222.28 180.776,2156.95 208,2091.5C 208.333,1987.17 208.667,1882.83 209,1778.5C 227.184,1835.88 254.517,1888.21 291,1935.5C 291.5,1661.83 291.667,1388.17 291.5,1114.5C 323.5,1114.5 355.5,1114.5 387.5,1114.5C 387.5,1159.17 387.5,1203.83 387.5,1248.5C 404.833,1248.5 422.167,1248.5 439.5,1248.5C 439.5,1203.5 439.5,1158.5 439.5,1113.5C 468.167,1113.5 496.833,1113.5 525.5,1113.5C 525.5,1172.5 525.5,1231.5 525.5,1290.5C 568.5,1290.5 611.5,1290.5 654.5,1290.5C 654.5,1202.83 654.5,1115.17 654.5,1027.5 Z M 396.5,1320.5 C 411.833,1320.5 427.167,1320.5 442.5,1320.5C 442.5,1360.5 442.5,1400.5 442.5,1440.5C 427.167,1440.5 411.833,1440.5 396.5,1440.5C 396.5,1400.5 396.5,1360.5 396.5,1320.5 Z M 468.5,1527.5 C 481.5,1527.5 494.5,1527.5 507.5,1527.5C 507.5,1558.83 507.5,1590.17 507.5,1621.5C 494.5,1621.5 481.5,1621.5 468.5,1621.5C 468.5,1590.17 468.5,1558.83 468.5,1527.5 Z"/></g>
<g><path style="opacity:0.995" fill="#fefffe" d="M 1635.5,1027.5 C 1679.83,1027.5 1724.17,1027.5 1768.5,1027.5C 1768.5,1115.83 1768.5,1204.17 1768.5,1292.5C 1810.83,1292.5 1853.17,1292.5 1895.5,1292.5C 1895.5,1233.17 1895.5,1173.83 1895.5,1114.5C 1923.83,1114.5 1952.17,1114.5 1980.5,1114.5C 1980.5,1150.5 1980.5,1186.5 1980.5,1222.5C 1996.5,1222.5 2012.5,1222.5 2028.5,1222.5C 2028.5,1186.5 2028.5,1150.5 2028.5,1114.5C 2058.17,1114.5 2087.83,1114.5 2117.5,1114.5C 2117.33,1384.83 2117.5,1655.17 2118,1925.5C 2133.92,1908.59 2147.92,1890.26 2160,1870.5C 2174.4,1844.36 2187.74,1817.69 2200,1790.5C 2203.36,1787.8 2206.03,1788.47 2208,1792.5C 2207.89,1808.33 2207.39,1824.17 2206.5,1840C 2206.7,1922.16 2206.87,2004.33 2207,2086.5C 2230.97,2152.95 2254.81,2219.45 2278.5,2286C 2276.96,2289.01 2275.13,2289.17 2273,2286.5C 2249.47,2218.9 2224.97,2151.73 2199.5,2085C 2187.96,2075.89 2175.96,2075.22 2163.5,2083C 2153.59,2096.25 2142.92,2108.92 2131.5,2121C 2124.24,2128.26 2115.91,2133.93 2106.5,2138C 2097.14,2140.1 2089.31,2137.6 2083,2130.5C 2073.67,2115.17 2064.33,2099.83 2055,2084.5C 2041.31,2066.57 2023.47,2055.07 2001.5,2050C 1987.42,2048.44 1974.42,2051.44 1962.5,2059C 1939.79,2077.02 1914.46,2090.36 1886.5,2099C 1850.98,2108.03 1817.98,2102.36 1787.5,2082C 1772.42,2070.92 1758.59,2058.42 1746,2044.5C 1726.57,2021.07 1707.9,1997.07 1690,1972.5C 1684.25,1964.71 1676.75,1959.55 1667.5,1957C 1659.59,1956.53 1652.59,1958.86 1646.5,1964C 1642.96,1967.38 1639.62,1970.88 1636.5,1974.5C 1635.5,1658.83 1635.17,1343.17 1635.5,1027.5 Z M 1981.5,1274.5 C 1997.5,1274.5 2013.5,1274.5 2029.5,1274.5C 2029.5,1324.83 2029.5,1375.17 2029.5,1425.5C 2013.5,1425.5 1997.5,1425.5 1981.5,1425.5C 1981.5,1375.17 1981.5,1324.83 1981.5,1274.5 Z M 1981.5,1527.5 C 1997.5,1527.5 2013.5,1527.5 2029.5,1527.5C 2029.5,1575.83 2029.5,1624.17 2029.5,1672.5C 2013.5,1672.5 1997.5,1672.5 1981.5,1672.5C 1981.5,1624.17 1981.5,1575.83 1981.5,1527.5 Z M 1816.5,1811.5 C 1831.17,1811.5 1845.83,1811.5 1860.5,1811.5C 1860.5,1852.17 1860.5,1892.83 1860.5,1933.5C 1845.83,1933.5 1831.17,1933.5 1816.5,1933.5C 1816.5,1892.83 1816.5,1852.17 1816.5,1811.5 Z"/></g>
<g><path style="opacity:0.995" fill="#fefffe" d="M 2421.5,2292.5 C 2421.5,2298.17 2421.5,2303.83 2421.5,2309.5C 1614.17,2309.5 806.833,2309.5 -0.5,2309.5C -0.5,2303.83 -0.5,2298.17 -0.5,2292.5C 283.5,2292.5 567.5,2292.5 851.5,2292.5C 851.5,1917.83 851.5,1543.17 851.5,1168.5C 867.833,1168.5 884.167,1168.5 900.5,1168.5C 900.5,1203.83 900.5,1239.17 900.5,1274.5C 918.5,1274.5 936.5,1274.5 954.5,1274.5C 954.5,1328.17 954.5,1381.83 954.5,1435.5C 973.167,1435.5 991.833,1435.5 1010.5,1435.5C 1010.5,1423.17 1010.5,1410.83 1010.5,1398.5C 1050.17,1398.5 1089.83,1398.5 1129.5,1398.5C 1129.5,1407.17 1129.5,1415.83 1129.5,1424.5C 1184.5,1424.5 1239.5,1424.5 1294.5,1424.5C 1294.5,1415.83 1294.5,1407.17 1294.5,1398.5C 1334.17,1398.5 1373.83,1398.5 1413.5,1398.5C 1413.5,1409.83 1413.5,1421.17 1413.5,1432.5C 1438.17,1432.5 1462.83,1432.5 1487.5,1432.5C 1487.5,1382.5 1487.5,1332.5 1487.5,1282.5C 1499.5,1282.5 1511.5,1282.5 1523.5,1282.5C 1523.5,1244.5 1523.5,1206.5 1523.5,1168.5C 1540.17,1168.5 1556.83,1168.5 1573.5,1168.5C 1573.5,1543.17 1573.5,1917.83 1573.5,2292.5C 1856.17,2292.5 2138.83,2292.5 2421.5,2292.5 Z M 996.5,1642.5 C 1012.83,1642.5 1029.17,1642.5 1045.5,1642.5C 1045.5,1671.17 1045.5,1699.83 1045.5,1728.5C 1029.17,1728.5 1012.83,1728.5 996.5,1728.5C 996.5,1699.83 996.5,1671.17 996.5,1642.5 Z M 1413.5,1642.5 C 1429.5,1642.5 1445.5,1642.5 1461.5,1642.5C 1461.5,1671.17 1461.5,1699.83 1461.5,1728.5C 1445.5,1728.5 1429.5,1728.5 1413.5,1728.5C 1413.5,1699.83 1413.5,1671.17 1413.5,1642.5 Z M 1197.5,1944.5 C 1227.43,1943.09 1253.77,1951.92 1276.5,1971C 1290.13,1984.76 1298.63,2001.26 1302,2020.5C 1302.5,2111.17 1302.67,2201.83 1302.5,2292.5C 1239.17,2292.5 1175.83,2292.5 1112.5,2292.5C 1112.01,2198.8 1112.51,2105.13 1114,2011.5C 1121,1979.84 1139.83,1959.01 1170.5,1949C 1179.54,1946.83 1188.54,1945.33 1197.5,1944.5 Z"/></g>
</svg>
